<svg xmlns="http://www.w3.org/2000/svg" xmlns:xlink="http://www.w3.org/1999/xlink" width="1024" zoomAndPan="magnify" viewBox="0 0 768 767.999994" height="1024" preserveAspectRatio="xMidYMid meet" version="1.0"><defs><clipPath id="21ee7c8f08"><path d="M 38.742188 19 L 729.492188 19 L 729.492188 768 L 38.742188 768 Z M 38.742188 19 " clip-rule="nonzero"/></clipPath></defs><g clip-path="url(#21ee7c8f08)"><path fill="#ffffff" d="M 347.441406 19.757812 C 306.449219 22.472656 250.277344 32.242188 212.433594 43.242188 C 176.414062 53.710938 133.238281 70.707031 114.710938 81.714844 C 102.128906 89.191406 87.988281 104.542969 81.40625 117.882812 C 72.222656 136.484375 71.785156 140.613281 72.203125 204.210938 L 72.578125 260.9375 L 81.152344 247.578125 C 85.871094 240.230469 95.050781 227.847656 101.554688 220.0625 L 113.378906 205.902344 L 113.378906 178.410156 C 113.378906 148.347656 114.707031 141.308594 122.65625 129.292969 C 127.679688 121.703125 134.140625 117.382812 152.960938 109.023438 C 206.730469 85.144531 268.140625 69.355469 332.410156 62.894531 C 358.855469 60.238281 421.390625 60.628906 448.089844 63.617188 C 503.003906 69.769531 560.664062 84.140625 607.390625 103.328125 C 642.613281 117.789062 651.136719 124.054688 657.726562 140.335938 L 660.960938 148.324219 L 660.960938 275.734375 C 660.960938 402.703125 660.949219 403.210938 657.644531 421.484375 C 641.460938 511.019531 596 580.136719 511.359375 643.902344 C 486.644531 662.515625 423.238281 696.789062 398.085938 705.125 L 387.167969 708.742188 L 377.328125 705.371094 C 346.527344 694.820312 298.660156 668.972656 263.125 643.707031 C 181.285156 585.519531 125.777344 498.738281 116.128906 413.882812 C 110.074219 360.605469 129.144531 302.945312 166.640625 261.1875 C 200.230469 223.777344 241.539062 201.199219 294.117188 191.511719 C 300.21875 190.390625 305.210938 189.75 305.210938 190.089844 C 305.210938 190.433594 301.511719 192.347656 296.992188 194.347656 C 275.371094 203.910156 243.359375 231.082031 230.394531 250.871094 C 197.023438 301.816406 195.167969 363.21875 225.703125 406.011719 C 258.222656 451.578125 322.136719 458.785156 346.976562 419.6875 C 352.308594 411.296875 352.363281 407.796875 347.085938 412.738281 C 334.589844 424.425781 313.058594 426.59375 295.679688 417.914062 C 286.761719 413.457031 275.804688 401.292969 270.46875 389.917969 C 264.332031 376.828125 263.234375 357.597656 267.78125 342.742188 C 276.527344 314.15625 301.460938 291.332031 331.695312 284.238281 C 344.367188 281.261719 373.542969 282.09375 385.378906 285.769531 C 450.492188 305.972656 485.351562 378.78125 462.628906 447.113281 C 454.375 471.929688 442.402344 491.011719 422.53125 511.007812 C 397.136719 536.5625 368.683594 552.042969 332.292969 560.113281 C 312.671875 564.464844 275.652344 564.824219 255.820312 560.855469 C 233.523438 556.390625 208.464844 546.289062 192.472656 535.3125 C 183.625 529.238281 185.023438 532.300781 195.179688 541.242188 C 218.410156 561.6875 248.519531 576.5625 280.996094 583.628906 C 295.644531 586.820312 327.535156 587.894531 344.4375 585.765625 C 388.414062 580.230469 428.730469 560.59375 460.429688 529.269531 C 483.039062 506.925781 499.9375 475.996094 508.605469 441.082031 C 511.492188 429.476562 511.984375 423.921875 511.984375 403.148438 C 511.984375 382.402344 511.488281 376.8125 508.625 365.289062 C 496.070312 314.785156 466.738281 277.164062 422.601562 254.957031 C 366 226.476562 296.023438 237.792969 256.554688 281.804688 L 249.160156 290.050781 L 252.910156 281.460938 C 264.609375 254.667969 285.195312 233.613281 313.800781 219.179688 C 349.324219 201.253906 393.6875 198.953125 433.15625 212.984375 C 460.984375 222.878906 483.644531 237.003906 504.726562 257.605469 C 539.769531 291.851562 561.40625 335.945312 567.242188 385.011719 C 568.144531 392.625 569.085938 399.058594 569.332031 399.3125 C 570.628906 400.644531 571.738281 372.625 570.902344 359.675781 C 564.78125 265.042969 504.796875 189.328125 412.050781 159.183594 C 383.09375 149.769531 372.503906 148.335938 332.410156 148.398438 C 299.898438 148.449219 296.015625 148.734375 279.234375 152.304688 C 198.042969 169.570312 136.179688 215.097656 100.539062 283.808594 C 86.878906 310.136719 80.660156 329.566406 75.398438 362.347656 C 64.21875 431.957031 90.878906 517.011719 146.746094 589.96875 C 161.722656 609.53125 204.117188 651.714844 225.042969 667.886719 C 266.59375 699.996094 316.660156 728.09375 360.789062 744.066406 C 386.957031 753.539062 390.863281 753.3125 423.167969 740.398438 C 513.460938 704.3125 597.222656 638.152344 645.335938 564.914062 C 671.929688 524.441406 687.105469 486.898438 697.125 436.789062 L 700.988281 417.460938 L 701.429688 281.710938 C 701.917969 130.5625 702.371094 138.496094 692.070312 117.546875 C 688.191406 109.65625 683.746094 103.742188 675.304688 95.246094 C 662.011719 81.859375 657.617188 79.230469 626.496094 66.027344 C 568.691406 41.496094 501.582031 25.800781 430.625 20.21875 C 413.71875 18.886719 364.660156 18.617188 347.441406 19.757812 M 170.109375 310.511719 C 168.257812 313.507812 162.203125 331.289062 159.769531 340.871094 C 155.585938 357.34375 155.921875 393.070312 160.417969 409.585938 C 167.175781 434.433594 178.929688 454.558594 197.851562 473.675781 C 212.4375 488.417969 223.820312 496.597656 241 504.710938 C 262.109375 514.671875 274.875 517.472656 299.484375 517.546875 C 317.8125 517.601562 321.894531 517.152344 334.351562 513.699219 C 375.542969 502.28125 406.859375 473.746094 419.808594 435.835938 C 424.257812 422.808594 424.617188 420.421875 424.621094 403.863281 C 424.621094 388.226562 424.144531 384.613281 420.863281 375.230469 C 415.40625 359.640625 410.355469 351.378906 399.773438 340.746094 C 384.371094 325.265625 366.691406 318.503906 344.710938 319.6875 C 328.746094 320.546875 317.765625 325.582031 307.359375 336.824219 C 301.320312 343.347656 298.929688 347.335938 296.667969 354.652344 C 292.632812 367.71875 293.007812 369.28125 298.457031 362.101562 C 304.101562 354.660156 314.730469 347.230469 322.855469 345.042969 C 343.953125 339.359375 368.5 351.621094 379 373.082031 C 384.703125 384.746094 385.667969 403.414062 381.300781 417.789062 C 370.914062 451.992188 335.902344 475.460938 295.316406 475.433594 C 236.25 475.390625 184.597656 429.171875 172.710938 365.71875 C 170.976562 356.460938 170.484375 347.335938 170.855469 331.253906 C 171.128906 319.222656 171.234375 309.378906 171.082031 309.378906 C 170.933594 309.378906 170.496094 309.886719 170.109375 310.511719 M 259.753906 834.828125 C 239.496094 838.46875 223.328125 847.859375 214.914062 860.875 C 202.917969 879.4375 203.773438 901.167969 217.082031 915.972656 C 225.582031 925.425781 237.121094 930.539062 268.078125 938.570312 C 281.804688 942.132812 296.480469 946.722656 300.679688 948.765625 C 315.953125 956.210938 318.320312 970.664062 305.96875 981.101562 C 296.261719 989.304688 267.578125 990.972656 247.230469 984.519531 C 240.933594 982.519531 231.140625 978.019531 225.46875 974.523438 C 218.003906 969.914062 214.792969 968.621094 213.832031 969.824219 C 213.101562 970.738281 210.210938 976.476562 207.414062 982.578125 L 202.324219 993.671875 L 206.917969 997.179688 C 226.777344 1012.328125 269.066406 1020.394531 297.9375 1014.542969 C 319.851562 1010.101562 334.878906 999.925781 342.558594 984.324219 C 346.464844 976.394531 347.113281 973.507812 347.175781 963.820312 C 347.355469 935.832031 331.230469 922.675781 282.003906 910.652344 C 255.363281 904.148438 248.464844 901.402344 243.789062 895.457031 C 239.691406 890.25 239.789062 881.054688 244.007812 874.792969 C 249.53125 866.597656 259.066406 862.820312 275.773438 862.214844 C 292.757812 861.59375 303.503906 863.925781 318.527344 871.492188 C 326.421875 875.46875 328.769531 876.121094 329.730469 874.613281 C 331.542969 871.773438 339.566406 852.355469 339.566406 850.816406 C 339.566406 848.816406 318.003906 839.355469 307.753906 836.859375 C 296.625 834.152344 269.832031 833.015625 259.753906 834.828125 M -195.5 924.484375 L -195.128906 1013 L -178.339844 1013.40625 L -161.550781 1013.808594 L -160.769531 961.464844 L -137.820312 961.074219 L -114.875 960.683594 L -97.050781 986.65625 C -87.246094 1000.941406 -78.535156 1012.894531 -77.6875 1013.21875 C -76.839844 1013.542969 -68.355469 1013.628906 -58.832031 1013.40625 L -41.511719 1013 L -61.414062 983.855469 C -72.363281 967.824219 -81.316406 954.519531 -81.316406 954.289062 C -81.316406 954.054688 -77.933594 951.953125 -73.800781 949.621094 C -64.164062 944.183594 -54.886719 934.085938 -50.050781 923.777344 C -46.589844 916.394531 -46.242188 914.085938 -46.242188 898.476562 C -46.242188 882.574219 -46.550781 880.632812 -50.359375 872.390625 C -57.257812 857.449219 -71.382812 846.179688 -91.339844 839.683594 C -98.101562 837.484375 -106.042969 837.039062 -147.539062 836.546875 L -195.867188 835.96875 Z M 17.460938 924.972656 L 17.460938 1013.746094 L 154.179688 1013.003906 L 154.179688 985.800781 L 51.820312 985.050781 L 51.820312 937.84375 L 83.671875 937.492188 C 101.191406 937.296875 120.679688 937.136719 126.976562 937.132812 L 138.429688 937.128906 L 138.839844 923.171875 L 139.25 909.210938 L 51.820312 909.210938 L 51.820312 864.832031 L 150.597656 864.832031 L 150.597656 836.203125 L 17.460938 836.203125 Z M 405.421875 924.960938 L 405.421875 1013.71875 L 439.78125 1013.71875 L 439.78125 836.203125 L 405.421875 836.203125 Z M 511.359375 924.960938 L 511.359375 1013.71875 L 638.871094 1013.71875 L 638.464844 999.761719 L 638.054688 985.800781 L 591.167969 985.425781 L 544.285156 985.046875 L 544.285156 836.203125 L 511.359375 836.203125 Z M 690.652344 924.601562 L 691.023438 1013.003906 L 724.664062 1013.808594 L 724.664062 836.203125 L 690.285156 836.203125 Z M 837.832031 872.347656 C 818.542969 914.953125 780.679688 997.628906 776.359375 1006.570312 C 774.699219 1010.011719 773.339844 1013.023438 773.339844 1013.269531 C 773.339844 1013.515625 781.308594 1013.71875 791.046875 1013.71875 L 808.753906 1013.71875 L 816.988281 994.75 C 821.519531 984.316406 825.679688 975.277344 826.238281 974.664062 C 826.796875 974.050781 847.171875 973.515625 871.515625 973.480469 L 915.78125 973.414062 L 919 979.609375 C 920.773438 983.015625 925.074219 992.082031 928.566406 999.761719 L 934.910156 1013.71875 L 952.191406 1013.71875 C 961.691406 1013.71875 969.464844 1013.199219 969.464844 1012.5625 C 969.464844 1011.925781 953.140625 976.011719 933.1875 932.75 C 913.238281 889.492188 895.109375 850.070312 892.910156 845.148438 L 888.90625 836.203125 L 854.195312 836.203125 Z M -161.15625 898.707031 L -160.769531 932.832031 L -137.917969 933.226562 C -113.015625 933.660156 -102.640625 932.230469 -95.425781 927.363281 C -88.210938 922.503906 -81.730469 912.996094 -79.824219 904.480469 C -76.53125 889.773438 -84.269531 874.464844 -98.1875 868.140625 C -102.457031 866.203125 -109.25 865.609375 -132.523438 865.152344 L -161.539062 864.578125 Z M 868.078125 877.84375 C 866.527344 881.449219 859.398438 897.703125 852.226562 913.957031 C 845.058594 930.210938 839.191406 944.167969 839.191406 944.972656 C 839.191406 945.921875 850.433594 946.433594 871.402344 946.433594 C 889.117188 946.433594 903.613281 945.9375 903.613281 945.332031 C 903.613281 944.113281 874.871094 878.394531 872.429688 874.03125 C 871.050781 871.5625 870.597656 871.957031 868.078125 877.84375 M -187.253906 1091.390625 C -192.371094 1102.601562 -196.433594 1112.097656 -196.277344 1112.492188 C -196.121094 1112.890625 -195.03125 1113.414062 -193.847656 1113.660156 C -192.539062 1113.933594 -190.542969 1111.839844 -188.730469 1108.292969 L -185.765625 1102.476562 L -164.304688 1102.476562 L -161.96875 1107.375 C -159.902344 1111.707031 -155.589844 1114.714844 -153.886719 1113.011719 C -153.554688 1112.675781 -157.511719 1103.082031 -162.683594 1091.691406 C -175.058594 1064.4375 -174.949219 1064.4375 -187.253906 1091.390625 M -145.738281 1086.085938 C -145.738281 1103.261719 -144.042969 1108.21875 -136.886719 1111.917969 C -131.269531 1114.824219 -121.082031 1113.929688 -116.851562 1110.160156 C -111.691406 1105.566406 -109.949219 1099.117188 -109.949219 1084.628906 C -109.949219 1071.9375 -110.148438 1070.980469 -112.8125 1070.980469 C -115.460938 1070.980469 -115.675781 1071.9375 -115.675781 1083.652344 C -115.675781 1102.515625 -118.496094 1108.203125 -127.84375 1108.203125 C -137.195312 1108.203125 -140.011719 1102.515625 -140.011719 1083.652344 C -140.011719 1071.9375 -140.230469 1070.980469 -142.875 1070.980469 C -145.558594 1070.980469 -145.738281 1071.9375 -145.738281 1086.085938 M -102.792969 1073.800781 C -102.792969 1076.332031 -101.871094 1076.707031 -95.675781 1076.707031 L -88.5625 1076.707031 L -88.160156 1094.960938 C -87.785156 1112.125 -87.589844 1113.214844 -84.898438 1113.214844 C -82.203125 1113.214844 -82.007812 1112.125 -81.632812 1094.960938 L -81.230469 1076.707031 L -74.011719 1076.707031 C -67.90625 1076.707031 -66.867188 1076.320312 -67.273438 1074.203125 C -67.691406 1072.007812 -69.910156 1071.648438 -85.273438 1071.296875 C -102.058594 1070.910156 -102.792969 1071.015625 -102.792969 1073.800781 M -51.398438 1074.035156 C -58.222656 1077.996094 -61.828125 1084.382812 -61.828125 1092.527344 C -61.828125 1112.621094 -36.722656 1121.410156 -22.710938 1106.21875 C -17.785156 1100.878906 -16.949219 1087.957031 -21.097656 1081.347656 C -27.457031 1071.21875 -40.933594 1067.964844 -51.398438 1074.035156 M -6.875 1091.636719 C -6.875 1104.589844 -6.332031 1112.496094 -5.441406 1112.496094 C -4.65625 1112.496094 -3.53125 1112.503906 -2.9375 1112.511719 C -2.347656 1112.519531 -1.542969 1106.234375 -1.148438 1098.550781 L -0.433594 1084.582031 L 6.726562 1096.617188 C 10.660156 1103.234375 14.507812 1108.710938 15.273438 1108.785156 C 16.039062 1108.859375 20.039062 1103.1875 24.167969 1096.1875 L 31.671875 1083.453125 L 32.082031 1098.316406 C 32.4375 1111.140625 32.835938 1113.246094 35 1113.660156 C 37.296875 1114.101562 37.503906 1112.339844 37.503906 1092.558594 C 37.503906 1072.945312 37.277344 1070.984375 35 1071.027344 C 33.34375 1071.054688 29.816406 1075.800781 24.621094 1084.984375 C 20.289062 1092.636719 16.101562 1098.835938 15.316406 1098.761719 C 14.527344 1098.683594 10.3125 1092.570312 5.949219 1085.167969 C -5.71875 1065.378906 -6.875 1065.960938 -6.875 1091.636719 M 55.863281 1091.730469 C 50.625 1103.140625 46.871094 1112.808594 47.519531 1113.210938 C 49.769531 1114.601562 52.800781 1112.34375 54.8125 1107.78125 C 56.804688 1103.25 56.964844 1103.1875 67.917969 1102.773438 L 79.007812 1102.355469 L 81.425781 1107.425781 C 82.957031 1110.636719 84.855469 1112.496094 86.597656 1112.496094 C 89.878906 1112.496094 90.191406 1113.5 79.320312 1089.253906 C 68.351562 1064.789062 68.230469 1064.800781 55.863281 1091.730469 M 90.472656 1073.84375 C 90.472656 1076.324219 91.425781 1076.707031 97.585938 1076.707031 L 104.703125 1076.707031 L 105.101562 1094.941406 C 105.457031 1110.984375 105.804688 1113.234375 108.007812 1113.660156 C 110.292969 1114.097656 110.515625 1112.476562 110.515625 1095.421875 L 110.515625 1076.707031 L 117.671875 1076.707031 C 123.875 1076.707031 124.832031 1076.324219 124.832031 1073.84375 C 124.832031 1071.140625 123.875 1070.980469 107.652344 1070.980469 C 91.425781 1070.980469 90.472656 1071.140625 90.472656 1073.84375 M 134.851562 1092.457031 L 134.851562 1114.027344 L 149.507812 1113.621094 C 162.136719 1113.269531 164.230469 1112.867188 164.644531 1110.707031 C 165.074219 1108.480469 163.765625 1108.203125 152.773438 1108.203125 L 140.421875 1108.203125 L 140.855469 1101.402344 L 141.292969 1094.601562 L 151.671875 1094.179688 C 159.613281 1093.859375 162.050781 1093.269531 162.050781 1091.675781 C 162.050781 1090.035156 159.761719 1089.589844 151.316406 1089.589844 L 140.578125 1089.589844 L 140.578125 1076.824219 L 152.390625 1076.40625 C 161.75 1076.078125 164.199219 1075.546875 164.199219 1073.84375 C 164.199219 1072.101562 161.433594 1071.621094 149.527344 1071.289062 L 134.851562 1070.882812 Z M 176.6875 1092.097656 L 177.082031 1113.214844 L 189.253906 1113.089844 C 208.132812 1112.898438 216.441406 1106.59375 216.441406 1092.453125 C 216.441406 1078.296875 206.660156 1071.066406 187.425781 1071.011719 L 176.292969 1070.980469 Z M 240.789062 1073.765625 C 240.789062 1076.070312 241.957031 1076.625 247.589844 1076.988281 L 254.390625 1077.421875 L 254.414062 1095.316406 C 254.4375 1112.195312 254.601562 1113.214844 257.277344 1113.214844 C 259.9375 1113.214844 260.140625 1112.070312 260.515625 1094.960938 L 260.917969 1076.707031 L 268.03125 1076.707031 C 274.191406 1076.707031 275.148438 1076.324219 275.148438 1073.84375 C 275.148438 1071.140625 274.191406 1070.980469 257.96875 1070.980469 C 241.902344 1070.980469 240.789062 1071.160156 240.789062 1073.765625 M 278.941406 1072.066406 C 278.570312 1072.664062 281.71875 1078.714844 285.933594 1085.511719 C 292.289062 1095.765625 293.671875 1099.179688 294.035156 1105.53125 C 294.375 1111.472656 295.035156 1113.292969 296.980469 1113.664062 C 299.070312 1114.0625 299.484375 1113.050781 299.484375 1107.519531 C 299.484375 1100.257812 301.082031 1096.53125 310.414062 1082.03125 C 313.851562 1076.691406 316.664062 1072.023438 316.664062 1071.652344 C 316.664062 1071.285156 315.433594 1070.980469 313.925781 1070.980469 C 312.085938 1070.980469 309.175781 1074.25 305.007812 1081.003906 C 301.609375 1086.515625 298.335938 1091.023438 297.734375 1091.023438 C 297.132812 1091.023438 293.644531 1086.515625 289.980469 1081.003906 C 283.863281 1071.804688 280.691406 1069.234375 278.941406 1072.066406 M 325.253906 1092.457031 C 325.253906 1112.972656 325.378906 1113.929688 328.117188 1113.929688 C 330.554688 1113.929688 330.980469 1112.972656 330.980469 1107.488281 C 330.980469 1101.179688 331.078125 1101.042969 335.632812 1101.011719 C 349.765625 1100.90625 358.179688 1095.449219 358.179688 1086.386719 C 358.179688 1075.113281 352.050781 1070.980469 335.320312 1070.980469 L 325.253906 1070.980469 Z M 369.949219 1092.097656 C 370.328125 1112.125 370.496094 1113.214844 373.210938 1113.214844 C 375.78125 1113.214844 376.074219 1112.257812 376.074219 1103.90625 L 376.074219 1094.601562 L 387.816406 1094.1875 L 399.5625 1093.773438 L 399.984375 1103.476562 C 400.332031 1111.378906 400.875 1113.273438 402.917969 1113.660156 C 405.210938 1114.097656 405.421875 1112.339844 405.421875 1092.558594 C 405.421875 1071.9375 405.296875 1070.980469 402.558594 1070.980469 C 400.015625 1070.980469 399.695312 1071.9375 399.695312 1079.484375 L 399.695312 1087.984375 L 393.609375 1088.894531 C 390.265625 1089.398438 384.949219 1089.597656 381.800781 1089.34375 L 376.074219 1088.875 L 375.648438 1079.929688 C 375.273438 1072.109375 374.863281 1070.980469 372.390625 1070.980469 C 369.675781 1070.980469 369.570312 1071.878906 369.949219 1092.097656 M 426.75 1074.230469 C 419.863281 1078.832031 416.578125 1085.835938 417.3125 1094.351562 C 418.007812 1102.4375 421.585938 1107.933594 428.429688 1111.421875 C 439.496094 1117.066406 452.5625 1113.09375 458.03125 1102.425781 C 461.949219 1094.789062 462.113281 1089.015625 458.601562 1082.410156 C 452.628906 1071.167969 437.246094 1067.21875 426.75 1074.230469 M 480.578125 1073.644531 C 472.171875 1078.839844 470.558594 1081.871094 470.558594 1092.488281 C 470.558594 1100.90625 471.050781 1102.777344 474.136719 1106.125 C 484.503906 1117.359375 503.941406 1115.824219 510.71875 1103.234375 C 514.28125 1096.621094 513.046875 1083.707031 508.375 1078.707031 C 500.898438 1070.703125 488.886719 1068.515625 480.578125 1073.644531 M 524.5625 1092.097656 C 524.9375 1112.125 525.105469 1113.214844 527.820312 1113.214844 C 530.453125 1113.214844 530.742188 1112.019531 531.402344 1098.5 L 532.117188 1083.789062 L 544.230469 1098.90625 C 551.648438 1108.160156 557.199219 1113.859375 558.546875 1113.597656 C 560.40625 1113.242188 560.75 1109.953125 560.75 1092.433594 C 560.75 1072.652344 560.617188 1071.699219 557.886719 1071.699219 C 555.253906 1071.699219 554.964844 1072.890625 554.304688 1086.550781 L 553.589844 1101.402344 L 541.554688 1086.191406 C 524.734375 1064.933594 524.058594 1065.164062 524.5625 1092.097656 M 593.277344 1092.078125 C 593.625 1110.554688 593.976562 1113.234375 596.09375 1113.640625 C 598.011719 1114.007812 598.605469 1112.828125 598.957031 1107.933594 L 599.402344 1101.761719 L 606.082031 1101.328125 C 612.570312 1100.910156 612.890625 1101.085938 617.246094 1107.414062 C 619.980469 1111.390625 622.816406 1113.929688 624.523438 1113.929688 C 628.15625 1113.929688 628.105469 1113.699219 622.90625 1106.324219 L 618.496094 1100.066406 L 622.90625 1095.65625 C 626.082031 1092.480469 627.316406 1089.898438 627.316406 1086.441406 C 627.316406 1076.109375 619.246094 1070.980469 602.988281 1070.980469 L 592.882812 1070.980469 Z M 640.066406 1072.054688 C 639.996094 1072.648438 639.957031 1082.148438 639.980469 1093.171875 L 640.023438 1113.214844 L 654.769531 1113.214844 C 667.667969 1113.214844 669.570312 1112.902344 669.992188 1110.707031 C 670.421875 1108.480469 669.117188 1108.203125 658.125 1108.203125 L 645.769531 1108.203125 L 646.644531 1094.601562 L 657.023438 1094.183594 C 664.960938 1093.859375 667.402344 1093.269531 667.402344 1091.675781 C 667.402344 1090.039062 665.109375 1089.59375 656.664062 1089.59375 L 645.925781 1089.59375 L 645.925781 1076.707031 L 657.378906 1076.707031 C 667.878906 1076.707031 668.832031 1076.46875 668.832031 1073.84375 C 668.832031 1071.171875 667.878906 1070.980469 654.515625 1070.980469 C 646.644531 1070.980469 640.140625 1071.464844 640.066406 1072.054688 M 683.257812 1074.6875 C 674.25 1082.269531 679.039062 1091.882812 693.417969 1095.09375 C 702.464844 1097.113281 705.3125 1099.480469 703.929688 1103.835938 C 702.4375 1108.535156 693.617188 1109.394531 682.074219 1105.960938 C 679.476562 1105.191406 678.855469 1105.570312 678.855469 1107.925781 C 678.855469 1111.863281 687.003906 1114.472656 696.472656 1113.5625 C 702.070312 1113.027344 704.5 1111.980469 707.042969 1109.023438 C 713.523438 1101.492188 710.019531 1093.996094 698.621094 1091 C 685.636719 1087.582031 681.976562 1083.808594 686.886719 1078.898438 C 688.808594 1076.980469 691.296875 1076.554688 698.375 1076.9375 C 707.933594 1077.453125 710.324219 1075.828125 704.460938 1072.792969 C 698.328125 1069.621094 688.207031 1070.523438 683.257812 1074.6875 M 720.996094 1072.84375 C 720.605469 1073.867188 720.464844 1083.371094 720.683594 1093.957031 C 721.0625 1112.125 721.246094 1113.214844 723.949219 1113.214844 C 726.664062 1113.214844 726.832031 1112.125 727.207031 1092.097656 C 727.59375 1071.609375 727.515625 1070.980469 724.65625 1070.980469 C 723.039062 1070.980469 721.390625 1071.820312 720.996094 1072.84375 M 741.84375 1092.457031 L 741.84375 1113.929688 L 756.160156 1113.929688 C 764.75 1113.929688 770.476562 1113.355469 770.476562 1112.496094 C 770.476562 1111.710938 770.484375 1110.582031 770.492188 1109.992188 C 770.503906 1109.402344 765.511719 1108.597656 759.398438 1108.203125 L 748.285156 1107.488281 L 747.886719 1089.234375 C 747.511719 1072.164062 747.300781 1070.980469 744.664062 1070.980469 C 741.984375 1070.980469 741.84375 1072.042969 741.84375 1092.457031 M 779.734375 1072.738281 C 779.316406 1073.820312 779.160156 1083.367188 779.378906 1093.957031 C 779.757812 1112.125 779.941406 1113.214844 782.644531 1113.214844 C 785.375 1113.214844 785.507812 1112.257812 785.507812 1092.476562 C 785.507812 1073.847656 785.25 1071.6875 782.996094 1071.253906 C 781.617188 1070.988281 780.148438 1071.65625 779.734375 1072.738281 M 800.539062 1091.023438 L 800.539062 1112.140625 C 800.539062 1112.730469 807.132812 1113.214844 815.191406 1113.214844 C 828.011719 1113.214844 829.90625 1112.898438 830.332031 1110.707031 C 830.757812 1108.480469 829.453125 1108.203125 818.460938 1108.203125 L 806.109375 1108.203125 L 806.542969 1101.402344 L 806.980469 1094.601562 L 817.359375 1094.179688 C 825.300781 1093.859375 827.738281 1093.269531 827.738281 1091.675781 C 827.738281 1090.039062 825.449219 1089.59375 817.003906 1089.59375 L 806.265625 1089.59375 L 806.265625 1076.707031 L 818.433594 1076.707031 C 829.648438 1076.707031 830.601562 1076.484375 830.601562 1073.84375 C 830.601562 1071.164062 829.648438 1070.980469 815.570312 1070.980469 L 800.539062 1070.980469 Z M 842.375 1092.078125 C 842.726562 1110.851562 843.046875 1113.230469 845.277344 1113.660156 C 847.535156 1114.09375 847.78125 1112.644531 847.78125 1099 C 847.78125 1090.675781 848.265625 1083.898438 848.855469 1083.933594 C 849.445312 1083.972656 854.117188 1089.25 859.234375 1095.660156 C 864.351562 1102.074219 870.007812 1108.855469 871.800781 1110.730469 C 877.734375 1116.933594 878.558594 1114.683594 878.558594 1092.335938 C 878.558594 1072.117188 878.496094 1071.6875 875.386719 1071.246094 C 872.304688 1070.804688 872.207031 1071.214844 871.808594 1086.277344 L 871.402344 1101.761719 L 859.382812 1086.371094 C 851.6875 1076.515625 846.398438 1070.980469 844.671875 1070.980469 C 842.140625 1070.980469 842 1072.238281 842.375 1092.078125 M 899.171875 1074.230469 C 892.386719 1078.765625 889.003906 1085.851562 889.707031 1094.0625 C 890.707031 1105.730469 899.691406 1113.929688 911.488281 1113.929688 C 917.726562 1113.929688 926.519531 1110.113281 926.519531 1107.40625 C 926.519531 1104.214844 924.222656 1103.84375 919.402344 1106.25 C 913.894531 1108.996094 904.667969 1108.171875 900.691406 1104.570312 C 893.6875 1098.230469 894.230469 1085.515625 901.761719 1079.59375 C 906.222656 1076.082031 915.917969 1075.742188 920.476562 1078.9375 C 923.894531 1081.332031 926.519531 1080.652344 926.519531 1077.375 C 926.519531 1070.996094 907.316406 1068.789062 899.171875 1074.230469 M 937.972656 1092.503906 L 937.972656 1114.027344 L 953.359375 1113.621094 C 965.90625 1113.285156 968.75 1112.816406 968.75 1111.066406 C 968.75 1109.382812 966.125 1108.761719 956.582031 1108.203125 L 944.414062 1107.484375 L 944.414062 1101.042969 C 944.414062 1093.902344 943.285156 1094.4375 959.085938 1094.039062 C 963.472656 1093.929688 965.171875 1093.285156 965.171875 1091.738281 C 965.171875 1090.019531 963.023438 1089.589844 954.433594 1089.589844 L 943.699219 1089.589844 L 943.699219 1076.707031 L 955.867188 1076.707031 C 967.078125 1076.707031 968.035156 1076.480469 968.035156 1073.84375 C 968.035156 1071.164062 967.078125 1070.980469 953.003906 1070.980469 L 937.972656 1070.980469 Z M -48.714844 1078.9375 C -53.792969 1081.695312 -55.550781 1085.183594 -55.550781 1092.503906 C -55.550781 1097.375 -54.660156 1099.359375 -50.683594 1103.335938 C -46.691406 1107.324219 -44.730469 1108.203125 -39.800781 1108.203125 C -34.871094 1108.203125 -32.910156 1107.324219 -28.921875 1103.335938 C -24.933594 1099.34375 -24.054688 1097.382812 -24.054688 1092.453125 C -24.054688 1087.527344 -24.933594 1085.566406 -28.921875 1081.574219 C -32.808594 1077.6875 -34.898438 1076.71875 -39.300781 1076.765625 C -42.332031 1076.796875 -46.566406 1077.773438 -48.714844 1078.9375 M 182.707031 1078.605469 C 182.308594 1079.648438 182.167969 1086.574219 182.394531 1093.992188 L 182.808594 1107.488281 L 188.082031 1107.925781 C 204.800781 1109.316406 215.097656 1097.90625 208.554688 1085.25 C 207.359375 1082.941406 204.492188 1080.074219 202.183594 1078.878906 C 196.894531 1076.144531 183.722656 1075.957031 182.707031 1078.605469 M 330.980469 1086.011719 L 330.980469 1095.316406 L 337.515625 1095.316406 C 347.71875 1095.316406 352.390625 1092.089844 352.429688 1085.019531 C 352.460938 1079.566406 347.679688 1076.707031 338.535156 1076.707031 L 330.980469 1076.707031 Z M 429.339844 1079.59375 C 427.320312 1081.179688 424.929688 1084.722656 424.023438 1087.46875 C 419.308594 1101.753906 434.828125 1113.394531 447.9375 1105.398438 C 456.832031 1099.976562 456.980469 1085.191406 448.203125 1079.042969 C 443.511719 1075.753906 433.859375 1076.039062 429.339844 1079.59375 M 482.476562 1079.160156 C 469.554688 1087.175781 475.953125 1108.203125 491.316406 1108.203125 C 499.550781 1108.203125 507.0625 1101.03125 507.0625 1093.175781 C 507.0625 1079.871094 493.65625 1072.222656 482.476562 1079.160156 M 599.269531 1078.679688 C 598.855469 1079.761719 598.714844 1083.789062 598.957031 1087.625 L 599.402344 1094.601562 L 606.90625 1095.035156 C 613.332031 1095.40625 614.929688 1094.949219 618 1091.878906 C 622.507812 1087.371094 622.527344 1084.671875 618.078125 1080.222656 C 615.269531 1077.414062 613.101562 1076.707031 607.296875 1076.707031 C 602.441406 1076.707031 599.777344 1077.363281 599.269531 1078.679688 M -179.398438 1087.621094 C -181.359375 1092.050781 -182.960938 1096.238281 -182.960938 1096.925781 C -182.960938 1097.617188 -179.417969 1098.179688 -175.085938 1098.179688 C -170.753906 1098.179688 -167.210938 1097.617188 -167.210938 1096.925781 C -167.210938 1095.027344 -174.222656 1079.570312 -175.085938 1079.570312 C -175.5 1079.570312 -177.441406 1083.195312 -179.398438 1087.621094 M 63.910156 1087.484375 C 61.984375 1091.839844 60.410156 1096.027344 60.410156 1096.792969 C 60.410156 1097.554688 63.996094 1098.179688 68.378906 1098.179688 C 75.8125 1098.179688 76.285156 1097.980469 75.402344 1095.191406 C 73.761719 1090.035156 68.898438 1079.570312 68.136719 1079.570312 C 67.738281 1079.570312 65.835938 1083.132812 63.910156 1087.484375 " fill-opacity="1" fill-rule="evenodd"/></g></svg>